HIERARCHY
ROOT Hips
{
	OFFSET 0.000000 0.000000 0.000000 
	CHANNELS 6 Xposition Yposition Zposition Zrotation Yrotation Xrotation
	JOINT LeftUpLeg
	{
		OFFSET 1.363060 -1.794630 0.839290 
		CHANNELS 3 Zrotation Yrotation Xrotation
		JOINT LeftLeg
		{
			OFFSET 2.448110 -6.726130 0.000000 
			CHANNELS 3 Zrotation Yrotation Xrotation
			JOINT LeftFoot
			{
				OFFSET 2.562200 -7.039590 0.000000 
				CHANNELS 3 Zrotation Yrotation Xrotation
				JOINT LeftToeBase
				{
					OFFSET 0.157640 -0.433110 2.322550 
					CHANNELS 3 Zrotation Yrotation Xrotation
					End Site
					{
						OFFSET 0.000000 0.000000 0.000000 
					}
				}
			}
		}
	}
	JOINT RightUpLeg
	{
		OFFSET -1.305520 -1.794630 0.839290 
		CHANNELS 3 Zrotation Yrotation Xrotation
		JOINT RightLeg
		{
			OFFSET -2.542530 -6.985550 0.000000 
			CHANNELS 3 Zrotation Yrotation Xrotation
			JOINT RightFoot
			{
				OFFSET -2.568260 -7.056230 0.000000 
				CHANNELS 3 Zrotation Yrotation Xrotation
				JOINT RightToeBase
				{
					OFFSET -0.164730 -0.452590 2.363150 
					CHANNELS 3 Zrotation Yrotation Xrotation
					End Site
					{
						OFFSET 0.000000 0.000000 0.000000 
					}
				}
			}
		}
	}
	JOINT Spine
	{
		OFFSET 0.028270 2.035590 -0.193380 
		CHANNELS 3 Zrotation Yrotation Xrotation
		JOINT Spine1
		{
			OFFSET 0.056720 2.048850 -0.042750 
			CHANNELS 3 Zrotation Yrotation Xrotation
			JOINT Neck1
			{
				OFFSET -0.054170 1.746240 0.172020 
				CHANNELS 3 Zrotation Yrotation Xrotation
				JOINT Head
				{
					OFFSET 0.104070 1.761360 -0.123970 
					CHANNELS 3 Zrotation Yrotation Xrotation
					End Site
					{
						OFFSET 0.000000 0.000000 0.000000 
					}
				}
			}
			JOINT LeftArm
			{
				OFFSET 3.362410 1.200890 -0.311210 
				CHANNELS 3 Zrotation Yrotation Xrotation
				JOINT LeftForeArm
				{
					OFFSET 4.983000 -0.000000 -0.000000 
					CHANNELS 3 Zrotation Yrotation Xrotation
					JOINT LeftHand
					{
						OFFSET 3.483560 -0.000000 -0.000000 
						CHANNELS 3 Zrotation Yrotation Xrotation
						JOINT LeftHandIndex1
						{
							OFFSET 0.715260 -0.000000 -0.000000 
							CHANNELS 3 Zrotation Yrotation Xrotation
							End Site
							{
								OFFSET 0.000000 0.000000 0.000000 
							}
						}
					}
				}
			}
			JOINT RightArm
			{
				OFFSET -3.136600 1.374050 -0.404650 
				CHANNELS 3 Zrotation Yrotation Xrotation
				JOINT RightForeArm
				{
					OFFSET -5.241900 -0.000000 -0.000000 
					CHANNELS 3 Zrotation Yrotation Xrotation
					JOINT RightHand
					{
						OFFSET -3.444170 -0.000000 -0.000000 
						CHANNELS 3 Zrotation Yrotation Xrotation
						JOINT RightHandIndex1
						{
							OFFSET -0.622530 -0.000000 -0.000000 
							CHANNELS 3 Zrotation Yrotation Xrotation
							End Site
							{
								OFFSET 0.000000 0.000000 0.000000 
							}
						}
					}
				}
			}
		}
	}
}
MOTION
Frames: 7
Frame Time: 0.041667
-13.602237 17.983860 13.721296 -3.176913 68.798925 0.563077 -13.692239 5.116743 -30.791559 0.154606 8.771311 24.239454 -1.075236 6.692751 0.058535 0.033400 -1.179400 -3.242700 18.587365 -4.336307 -1.550302 -0.144669 -5.385364 16.710125 3.634187 -17.358519 -11.535502 -0.147500 2.475300 -6.821100 0.962778 4.449953 1.268542 -3.045945 2.300314 -3.977332 4.515982 -3.443372 19.945511 3.929900 -2.330500 14.184600 -80.978820 1.420819 21.103512 18.482409 -26.106369 -5.215030 -1.399379 -2.563227 1.327291 -7.125000 0.000000 0.000000 74.613181 -4.340686 16.500135 -13.543137 20.619860 -2.650835 0.338524 -0.269376 11.069881 7.125000 0.000000 0.000000 
-13.550236 17.981551 13.745189 -3.672973 69.473926 0.255731 -13.126851 3.904276 -30.529837 -0.105572 8.327926 22.847934 -1.291789 7.721357 -0.362226 0.000800 -0.185900 -0.510800 18.881847 -4.534051 -1.172507 -0.065287 -5.155558 16.070507 3.787095 -17.969384 -11.768734 -0.133300 2.353000 -6.482300 0.945384 4.569092 1.290342 -3.261787 2.364450 -3.909723 4.604473 -3.416641 19.681281 3.974000 -2.302700 14.052500 -80.803635 1.605164 20.276343 18.531713 -26.189229 -5.242959 -1.341782 -2.542941 1.672069 -7.125000 0.000000 0.000000 74.386558 -3.899155 16.519331 -13.493154 20.555758 -2.632540 0.340887 -0.267086 10.732177 7.125000 0.000000 0.000000 
-13.501146 17.975528 13.767676 -3.978528 70.183294 0.087428 -12.523609 2.422105 -30.118556 -0.346022 7.896538 21.519322 -1.543037 8.880249 -0.887604 0.002000 0.285200 0.783700 19.093379 -4.926733 -0.825722 0.007757 -4.917215 15.404145 3.923355 -18.474624 -11.733357 -0.145700 2.460000 -6.778700 0.915980 4.699255 1.321251 -3.486612 2.438057 -3.856933 4.382153 -3.432640 19.548983 3.851400 -2.321300 13.995500 -80.655004 1.747765 19.604415 18.553213 -26.233305 -5.255729 -1.284078 -2.539817 1.826367 -7.125000 0.000000 0.000000 74.229422 -3.451407 16.159627 -13.488162 20.557423 -2.632023 0.336921 -0.264144 10.600992 7.125000 0.000000 0.000000 
-13.441817 17.965489 13.797692 -3.892992 70.716319 0.200788 -12.059571 1.117142 -29.626311 -0.560944 7.479502 20.262618 -1.820500 10.137175 -1.313756 0.007100 -0.543000 -1.492000 19.152681 -5.254750 -0.368370 0.071522 -4.701454 14.797947 4.040663 -18.911026 -11.712660 -0.180900 2.739900 -7.555300 0.903586 4.852731 1.370321 -3.553101 2.525168 -3.819077 4.048507 -3.334503 19.366265 3.702700 -2.311800 13.890700 -80.641912 2.000952 19.143875 18.632081 -26.355096 -5.298713 -1.297516 -2.567395 1.456752 -7.125000 0.000000 0.000000 74.003059 -2.985553 15.852529 -13.448274 20.499085 -2.615137 0.341046 -0.263302 10.568478 7.125000 0.000000 0.000000 
-13.372550 17.956755 13.824796 -3.717025 71.116729 0.418672 -11.748874 0.180967 -29.281010 -0.752016 7.077193 19.063005 -2.058897 11.210829 -1.479910 0.045300 -1.373900 -3.778100 19.130799 -5.537919 0.056534 0.122215 -4.524768 14.309381 4.114394 -19.201398 -11.803560 -0.195100 2.844700 -7.846800 0.859242 5.019996 1.431341 -3.683125 2.617703 -3.705477 4.120929 -3.276844 19.259745 3.772100 -2.291500 13.860300 -80.626655 2.238977 18.475113 18.684776 -26.442396 -5.324912 -1.322076 -2.568479 1.486769 -7.125000 0.000000 0.000000 73.799623 -2.489425 15.478268 -13.401709 20.442342 -2.598938 0.334020 -0.267087 10.702867 7.125000 0.000000 0.000000 
-13.305490 17.952238 13.851499 -3.890498 71.656049 0.453311 -11.340269 -0.759576 -29.157504 -0.915527 6.713061 17.986547 -2.204374 11.853047 -1.685404 0.024000 -1.001200 -2.752000 19.250859 -5.861374 0.304144 0.175557 -4.335241 13.796094 4.169268 -19.426489 -11.930584 -0.185600 2.774400 -7.651200 0.815060 5.135935 1.463393 -3.843780 2.686394 -3.531435 4.133046 -3.304006 19.161079 3.757700 -2.287700 13.822600 -80.489033 2.414381 17.840163 18.655019 -26.427709 -5.308316 -1.321559 -2.530846 1.741735 -7.125000 0.000000 0.000000 73.611572 -2.025653 15.248789 -13.419600 20.481229 -2.608264 0.328963 -0.266596 10.593236 7.125000 0.000000 0.000000 
-13.236424 17.941798 13.876897 -4.340515 72.366940 0.232571 -10.783270 -2.013143 -28.986372 -1.052502 6.398531 17.072683 -2.340384 12.430492 -2.208934 0.005800 -0.489700 -1.345600 19.510045 -5.904217 0.706461 0.243941 -4.120490 13.215381 4.278721 -19.902233 -12.365966 -0.139900 2.411000 -6.642900 0.821212 5.132148 1.423563 -3.918763 2.690299 -3.529159 3.947808 -3.249745 19.129794 3.630600 -2.255200 13.773200 -80.411687 2.793469 17.164479 18.605211 -26.382042 -5.294962 -1.191151 -2.374621 1.955599 -7.125000 0.000000 0.000000 73.410192 -1.711463 15.227935 -13.470944 20.550795 -2.625605 0.344741 -0.263692 10.230906 7.125000 0.000000 0.000000 
